/* XPM */
static const char * geht_xpm[] = {
"16 16 5 1",
" 	c None",
".	c #000000",
"+	c #00E877",
"@	c #00C66A",
"#	c #00A045",
"               .",
"              ..",
"       +     . .",
"      ++    .  .",
"     +@+    .  .",
"    +@@+       .",
"   +@@@+++++++ .",
"  +@@@@@@@@@@@ .",
" +@@@@@@@@@@@@ .",
"  #@@@@@@@@@@@ .",
"   #@@@####### .",
"    #@@#       .",
"     #@#    .  .",
"      ##     . .",
"       #      ..",
"               ."};
