/* XPM */
static const char * kommt_xpm[] = {
"16 16 5 1",
" 	c None",
".	c #000000",
"+	c #FF6363",
"@	c #FF0000",
"#	c #B50000",
"               .",
"              ..",
"       +     . .",
"       ++   .  .",
"       +@+  .  .",
"       +@@+    .",
" +++++++@@@+   .",
" @@@@@@@@@@@+  .",
" @@@@@@@@@@@@@ .",
" @@@@@@@@@@@#  .",
" #######@@@#   .",
"       #@@#    .",
"       #@#  .  .",
"       ##    . .",
"       #      ..",
"               ."};
